<svg width="66" height="66" viewBox="0 0 66 66" fill="none" xmlns="http://www.w3.org/2000/svg">
<path d="M33 5.5C42.0998 5.5 49.5 12.9002 49.5 22V44C49.5 53.0998 42.0998 60.5 33 60.5C23.9002 60.5 16.5 53.0998 16.5 44V22C16.5 12.9002 23.9002 5.5 33 5.5ZM33 0C20.8505 0 11 9.8505 11 22V44C11 56.1495 20.8505 66 33 66C45.1495 66 55 56.1495 55 44V22C55 9.8505 45.1495 0 33 0ZM33 24.75C30.7203 24.75 28.875 22.902 28.875 20.625C28.875 18.348 30.7203 16.5 33 16.5C35.2797 16.5 37.125 18.348 37.125 20.625C37.125 22.902 35.2797 24.75 33 24.75Z" fill="white"/>
</svg>
